<?xml version="1.0" encoding="UTF-8" standalone="no"?>
<!-- Created with Inkscape (http://www.inkscape.org/) -->

<svg
   version="1.1"
   id="svg1"
   width="1536"
   height="1024"
   viewBox="0 0 1536 1024"
   sodipodi:docname="dbx-ico-oficial.svg"
   inkscape:export-filename="dbx-ico-oficial1000x667px.png"
   inkscape:export-xdpi="62.5"
   inkscape:export-ydpi="62.5"
   inkscape:version="1.4.2 (f4327f4, 2025-05-13)"
   xmlns:inkscape="http://www.inkscape.org/namespaces/inkscape"
   xmlns:sodipodi="http://sodipodi.sourceforge.net/DTD/sodipodi-0.dtd"
   xmlns="http://www.w3.org/2000/svg"
   xmlns:svg="http://www.w3.org/2000/svg">
  <defs
     id="defs1" />
  <sodipodi:namedview
     id="namedview1"
     pagecolor="#ffffff"
     bordercolor="#000000"
     borderopacity="0.25"
     inkscape:showpageshadow="2"
     inkscape:pageopacity="0.0"
     inkscape:pagecheckerboard="0"
     inkscape:deskcolor="#d1d1d1"
     inkscape:zoom="0.15307617"
     inkscape:cx="525.88198"
     inkscape:cy="107.78947"
     inkscape:window-width="1600"
     inkscape:window-height="829"
     inkscape:window-x="-8"
     inkscape:window-y="-8"
     inkscape:window-maximized="1"
     inkscape:current-layer="g1" />
  <g
     inkscape:groupmode="layer"
     inkscape:label="Image"
     id="g1">
    <path
       style="fill:#000000"
       d="M 549.60878,847.94752 C 529.56061,845.59222 504.8735,836.9323 488.5,826.51133 c -8.27521,-5.26679 -21.96406,-16.29035 -28.16929,-22.68459 -18.4008,-18.96128 -32.49365,-45.68183 -38.57433,-73.13833 L 419.5,720.5 V 512 303.5 l 2.25638,-10.18841 c 6.48279,-29.27218 19.77039,-53.829 40.23298,-74.35459 C 483.53748,197.34254 510.72098,183.12447 541.5,177.3697 551.07312,175.57981 560.78469,175.5 769,175.5 h 217.5 l 10.5,2.30999 c 34.9781,7.69513 64.0518,24.78152 85.1128,50.02002 17.5079,20.98068 27.4672,42.21368 32.6789,69.66999 1.5763,8.30479 1.7083,24.87393 1.7083,214.5 0,228.22261 0.4727,211.48089 -6.599,233.72356 -7.2896,22.92846 -18.3752,40.8796 -36.3365,58.84094 -21.9849,21.98489 -45.412,34.68452 -76.86416,41.66731 l -10.20034,2.26461 -215,0.13035 c -118.25,0.0717 -218.10105,-0.23397 -221.89122,-0.67925 z M 848,587.12038 c 1.375,-0.74166 4.3,-3.4885 6.5,-6.10409 2.2,-2.61558 13.45,-15.62864 25,-28.9179 l 21,-24.16229 18.44711,19.28195 c 33.62395,35.14563 38.1677,39.48967 42.55289,40.68263 4.13264,1.12425 85.5,1.63428 85.5,0.53593 0,-0.49089 -24.0608,-26.94276 -54.97351,-60.43661 -25.98414,-28.15373 -38.97593,-43.26714 -38.26703,-44.51622 0.4073,-0.71766 7.56825,-9.33259 15.91323,-19.1443 21.30188,-25.04595 47.30831,-56.69721 47.31861,-57.58948 0,-0.4125 -5.3725,-0.75 -11.9496,-0.75 h -11.95832 l -14.28788,17 c -7.85833,9.35 -14.78076,17 -15.38318,17 -0.60242,0 -3.7671,2.8125 -7.03263,6.25 -8.28982,8.72639 -30.58218,34.42496 -32.31223,37.24946 -1.38327,2.25833 -0.91875,2.90045 13.50606,18.66966 8.21623,8.98198 17.57832,19.36838 20.80466,23.08088 4.69969,5.40787 6.43771,6.75 8.74106,6.75 3.61353,0 10.22055,5.77262 13.08417,11.43179 1.13222,2.23751 5.93714,8.25071 10.67759,13.36265 4.74045,5.11195 10.0706,10.99064 11.8447,13.06377 l 3.2257,3.76932 -17.22568,-0.35046 c -9.47415,-0.19275 -18.66906,-0.57574 -20.43314,-0.85109 -3.86285,-0.60293 -12.65402,-7.33086 -15.34438,-11.74313 -1.0674,-1.75057 -1.94241,-4.68383 -1.94446,-6.51836 -0.003,-2.95193 -2.22911,-5.71196 -19.35449,-24 -10.64291,-11.36547 -20.73524,-22.26168 -22.42739,-24.21381 -2.82068,-3.25402 -3.49734,-3.53596 -8.13339,-3.38886 -5.71154,0.18123 -3.17906,-2.14695 -30.93194,28.43664 C 858.14394,544.2363 857,545.82658 857,549.2883 c 0,7.35096 -5.70546,14.92804 -14,18.59257 -3.88813,1.71778 -6.77751,1.99476 -21.25,2.03707 -9.2125,0.0269 -16.75,-0.32384 -16.75,-0.7795 0,-0.45565 0.94958,-1.68571 2.11017,-2.73345 1.1606,-1.04775 3.42043,-3.55715 5.02184,-5.57646 2.71762,-3.4268 2.84453,-3.97101 1.90437,-8.16619 -2.12394,-9.47744 2.30381,-19.4258 10.89344,-24.47557 3.6457,-2.14328 5.92169,-2.70773 11.2514,-2.79039 l 6.68122,-0.10362 14.31878,-15.83963 c 24.03385,-26.58658 22.20557,-24.26817 20.68075,-26.22503 -2.1949,-2.81681 -20.90358,-23.98815 -30.21785,-34.19548 -7.06278,-7.73998 -9.44793,-9.70324 -13.07226,-10.76005 -3.04223,-0.88707 -5.55314,-2.60105 -8.00254,-5.46261 C 824.6062,430.51648 823,428.22326 823,427.71391 c 0,-1.19396 -4.95064,-7.4682 -12.38675,-15.69847 l -5.88674,-6.51544 17.38674,-0.2942 c 9.56271,-0.1618 18.74854,-0.0478 20.41294,0.25333 4.0204,0.7274 10.38562,6.08555 12.09804,10.18396 0.75667,1.81097 1.37577,4.80397 1.37577,6.6511 0,3.00122 2.17791,5.64745 20.4765,24.87949 20.01864,21.03984 20.56029,21.51596 24.22415,21.29352 3.9526,-0.23997 6.09381,-2.21003 19.61152,-18.04393 2.85331,-3.3422 9.13766,-10.4864 13.96523,-15.876 6.35394,-7.09367 8.61755,-10.30288 8.19847,-11.62329 -0.75855,-2.38998 1.40965,-6.42198 6.27765,-11.67398 2.16659,-2.3375 3.81483,-4.25 3.66275,-4.25 -0.15208,0 -5.14695,-0.19723 -11.0997,-0.43829 l -10.8232,-0.4383 -14.91364,17.1883 c -8.2025,9.45356 -15.37761,17.18829 -15.94468,17.18829 -0.56707,0 -12.023,-11.7 -25.45762,-26 -13.43462,-14.3 -25.60803,-26.5422 -27.05201,-27.2049 -2.95567,-1.35646 -83.1293,-1.88223 -83.12047,-0.5451 0.005,0.81833 36.57622,42.718 65.99505,75.61139 10.175,11.37674 18.62579,21.05192 18.77954,21.50041 0.15374,0.44848 -5.72175,7.75055 -13.05665,16.22681 -7.3349,8.47627 -20.48252,24.18639 -29.21694,34.91139 -8.73441,10.725 -21.98391,26.84731 -29.44335,35.82736 -7.45943,8.98004 -13.72306,16.77393 -13.91918,17.31974 -0.59328,1.65112 81.73886,0.65494 84.85658,-1.02672 z M 570.5,571.1915 c 28.7985,-7.9621 49.77486,-28.37258 57.86065,-56.29976 6.85983,-23.69286 5.87303,-57.43622 -2.29661,-78.53259 -7.43114,-19.18933 -24.24706,-36.26942 -43.40386,-44.08571 -13.88072,-5.66356 -20.89701,-6.4501 -62.41018,-6.99623 L 482,384.774 v 94.67463 94.67464 l 40.25,-0.35998 c 37.83625,-0.3384 40.72975,-0.49262 48.25,-2.57179 z M 522.02511,479.5 l 0.0713,-55.5 14.70178,0.0174 c 28.93102,0.0342 40.79404,5.49361 48.86454,22.48778 4.77799,10.06109 6.71,21.74771 6.03327,36.49486 -1.00627,21.92844 -7.87023,37.71288 -19.64991,45.18719 C 563.49301,533.61422 556.64332,535 538.37156,535 H 521.95378 Z M 729,572.93174 c 15.46265,-2.5053 30.54162,-10.05985 38.79512,-19.43633 13.51211,-15.35056 16.94717,-38.33871 8.44196,-56.49541 -3.04321,-6.49657 -12.88946,-16.60358 -18.9969,-19.5 -3.91703,-1.85763 -5.4753,-3.5 -3.32077,-3.5 2.5669,0 12.27473,-10.64892 15.28833,-16.77041 2.91103,-5.91314 3.29683,-7.71785 3.64174,-17.03544 0.47051,-12.71054 -1.39634,-20.65326 -6.8098,-28.97301 -7.75212,-11.91396 -18.84415,-19.46588 -34.36704,-23.39853 -7.57639,-1.91944 -11.23683,-2.07969 -50.17264,-2.19655 l -42,-0.12606 -0.2551,94.25 -0.2551,94.25 41.7551,-0.008 c 24.42055,-0.004 44.45356,-0.44477 48.2551,-1.06071 z m -48.99462,-57.59857 0.005,-19.83317 15.24462,-0.31506 c 25.32249,-0.52333 36.94837,2.49507 41.61908,10.80549 4.09949,7.29405 2.70295,17.56545 -3.13514,23.05856 -5.10808,4.80623 -7.93761,5.32116 -31.48932,5.73057 L 680,535.16634 Z M 680,440.92629 v -17.07371 l 20.25,0.32371 c 19.44438,0.31083 20.42903,0.42338 24.75,2.82907 5.91476,3.29303 8.23995,7.74666 7.71967,14.78611 -0.62507,8.45719 -5.45597,13.48418 -14.60616,15.19904 C 715.15094,457.54573 705.36344,458 696.36351,458 H 680 Z m 297.14661,117.08095 c 2.30095,-2.30095 2.82775,-3.51455 2.27894,-5.25 -2.18937,-6.92326 -7.5548,-10.52975 -12.99446,-8.7345 C 962.62312,545.27949 961,547.51412 961,551.5 c 0,3.43588 1.80275,6.73994 3.20468,5.8735 0.64415,-0.39811 0.82283,-0.22703 0.4288,0.41053 -0.9408,1.52224 2.2225,3.14927 6.19344,3.18556 2.38696,0.0218 4.17248,-0.81514 6.31969,-2.96235 z M 839.45163,556.58466 C 843.48604,554.89897 845,552.41704 845,547.48882 c 0,-7.4706 -7.89368,-11.66364 -15.02002,-7.97847 C 826.45661,541.33236 825,543.81552 825,548 c 0,4.34312 1.61049,6.92483 5.32874,8.54224 4.04693,1.76039 5.0006,1.76482 9.12289,0.0424 z m 109.23439,-27.35057 c 1.80446,-1.91329 2.98385,-3.98617 2.62087,-4.6064 -2.85419,-4.87701 -9.73046,-12.54086 -12.67476,-14.12647 -3.56054,-1.91748 -3.59879,-1.91664 -6.35711,0.13938 -1.52626,1.13765 -3.59002,3.46007 -4.58612,5.16094 l -1.8111,3.09247 7.67113,8.02929 c 8.60669,9.00851 8.79343,9.03702 15.13709,2.31079 z m -80.99331,-3.12645 C 872.2781,522.786 876,518.38662 876,516.28822 876,513.91582 870.37048,509 867.65365,509 c -2.73706,0 -7.49738,3.56743 -10.62914,7.96558 -1.68847,2.37123 -1.82936,3.29579 -0.9059,5.94481 0.91416,2.62238 4.69299,5.89686 6.98135,6.04957 0.32998,0.022 2.39672,-1.26152 4.59275,-2.85232 z m 38.94025,-32.87988 c 5.3844,-4.36153 5.75474,-10.04006 0.96704,-14.82776 -3.7641,-3.7641 -6.65387,-4.23999 -12.05163,-1.98466 -9.82703,4.106 -6.21144,18.61811 4.62471,18.56242 2.58118,-0.0133 5.18749,-0.71932 6.45988,-1.75 z m 32.31608,-35.10872 c 4.54737,-4.87711 9.36271,-12.04778 7.18785,-10.70364 -0.641,0.39616 -1.42313,0.002 -1.76513,-0.889 C 943.64517,444.63294 938.89286,442 936.20188,442 934.20744,442 923,453.02884 923,454.9915 c 0,3.50047 5.19454,7.88107 9.44904,7.96846 1.07883,0.0222 3.98096,-2.13922 6.5,-4.84092 z m -66.17155,1.32426 C 873.99987,458.58711 875,457.21055 875,456.38428 c 0,-0.82627 0.45,-1.2242 1,-0.88428 1.75624,1.08542 1.07233,-2.13833 -1.0172,-4.79473 -1.10945,-1.41045 -3.80469,-3.98017 -5.9894,-5.7105 l -3.97221,-3.14605 -3.2606,2.27746 c -1.79332,1.2526 -3.5912,2.74914 -3.99528,3.32564 -0.45996,0.65622 -0.74614,0.67424 -0.76531,0.0482 -0.032,-1.04398 -1.95792,1.51967 -1.98469,2.64185 -0.008,0.35301 2.05139,2.94051 4.57736,5.75 5.02834,5.59272 8.81448,6.61255 13.18482,3.55145 z M 843.98922,427.20982 C 849.18916,422.99916 845.2614,413 838.40747,413 c -4.61756,0 -6.27942,0.8517 -7.94446,4.07152 -2.10215,4.06512 -1.83549,5.70985 1.46007,9.0054 3.44606,3.44606 8.61066,3.93097 12.06614,1.1329 z m 124.37442,-0.84618 c 3.41135,-3.41136 3.51801,-8.22713 0.26595,-12.00788 -5.92092,-6.88348 -18.49857,0.0615 -16.26054,8.97853 1.43455,5.71567 11.4175,7.60643 15.99459,3.02935 z M 905.77362,393.25 c 1.61985,-2.6125 10.5821,-16.9 19.91613,-31.75 C 944.19922,332.05228 960,306.25707 960,305.48758 c 0,-0.26817 -6.6375,-0.47619 -14.75,-0.46226 l -14.75,0.0253 -5.92061,9.72469 C 893.2248,366.27561 892.58368,367.257 891.86625,364.85027 890.07177,358.83037 875.54973,314.91001 873.81296,310.25 L 871.8563,305 h -15.53514 c -14.39965,0 -15.48315,0.12791 -14.8239,1.75 3.36274,8.27406 29.6972,81.63219 31.94965,89 0.67161,2.19682 1.02698,2.25 15.0347,2.25 h 14.34684 z m 107.76628,3.20714 c 8.2303,-2.13053 13.6624,-4.91701 18.2336,-9.35329 11.1401,-10.81103 11.7704,-28.5345 1.2361,-34.75724 l -2.8435,-1.67971 3.9369,-1.94785 c 8.4272,-4.1694 14.804,-15.91986 13.5824,-25.02777 -1.1967,-8.92226 -9.3947,-15.76651 -21.2005,-17.69968 -3.2917,-0.53901 -18.1985,-0.98262 -33.12632,-0.98581 L 966.21716,305 l -1.49795,3.75 c -0.82387,2.0625 -2.179,6 -3.01139,8.75 -0.8324,2.75 -1.83033,5.7875 -2.21762,6.75 -0.6604,1.64121 0.99826,1.75 26.6803,1.75 23.4558,0 27.7114,0.22898 29.6632,1.59606 3.4473,2.41459 2.6298,7.19301 -1.7316,10.12202 -3.3194,2.22923 -3.994,2.28192 -29.2148,2.28192 -23.82775,0 -25.89108,0.13855 -26.7793,1.79821 -0.84999,1.58821 -5.108,17.10846 -5.108,18.6184 0,0.32087 11.90383,0.58339 26.45295,0.58339 18.08637,0 27.26615,0.3705 29.02395,1.17144 4.9241,2.24357 4.3164,8.95061 -1.1349,12.52567 -2.4658,1.61708 -5.8576,1.83536 -32.9104,2.11794 l -30.16131,0.31506 -2.73509,9.11362 c -1.50431,5.01249 -2.96327,9.70822 -3.24214,10.43495 -0.80554,2.0992 67.05354,1.89942 75.24684,-0.22154 z"
       id="path1" />
  </g>
</svg>
