<?xml version="1.0" encoding="UTF-8" standalone="no"?>
<!-- Created with Inkscape (http://www.inkscape.org/) -->

<svg
   version="1.1"
   id="svg1"
   width="1536"
   height="1024"
   viewBox="0 0 1536 1024"
   sodipodi:docname="dbx-ly.svg"
   inkscape:version="1.4.2 (f4327f4, 2025-05-13)"
   xmlns:inkscape="http://www.inkscape.org/namespaces/inkscape"
   xmlns:sodipodi="http://sodipodi.sourceforge.net/DTD/sodipodi-0.dtd"
   xmlns="http://www.w3.org/2000/svg"
   xmlns:svg="http://www.w3.org/2000/svg">
  <defs
     id="defs1" />
  <sodipodi:namedview
     id="namedview1"
     pagecolor="#ffffff"
     bordercolor="#000000"
     borderopacity="0.25"
     inkscape:showpageshadow="2"
     inkscape:pageopacity="0.0"
     inkscape:pagecheckerboard="0"
     inkscape:deskcolor="#d1d1d1"
     showgrid="false"
     inkscape:zoom="0.48763021"
     inkscape:cx="768"
     inkscape:cy="511.65821"
     inkscape:window-width="1600"
     inkscape:window-height="829"
     inkscape:window-x="-8"
     inkscape:window-y="-8"
     inkscape:window-maximized="1"
     inkscape:current-layer="g1" />
  <g
     inkscape:groupmode="layer"
     inkscape:label="Image"
     id="g1">
    <path
       style="fill:#000000"
       d="m 417.25492,694.00826 c -3.9965,-2.36536 -3.91392,-3.83778 1.74379,-31.09315 3.00834,-14.49233 5.47516,-27.15764 5.48183,-28.14514 0.007,-0.9875 1.11667,-2.9 2.46667,-4.25 2.34235,-2.34236 3.02179,-2.45455 14.86514,-2.45455 11.04127,0 12.70131,0.22868 15.04545,2.07258 1.73378,1.36379 2.63486,3.03712 2.63486,4.89301 0,2.73399 1.47686,4.03441 4.58179,4.03441 0.80914,0 1.41821,-0.9781 1.41821,-2.27749 0,-1.25263 0.65708,-3.21561 1.46017,-4.36219 2.59115,-3.69937 6.54408,-4.55475 19.39112,-4.19603 11.74052,0.32782 12.09526,0.40481 15.08771,3.27448 4.18877,4.01691 6.61679,4.15844 10.64622,0.62055 1.85461,-1.62837 4.84414,-3.23662 6.6434,-3.57389 1.79926,-0.33728 18.12138,-0.47197 36.27138,-0.29933 31.36533,0.29835 33.19468,0.41862 36.93009,2.42801 3.84839,2.07016 4.01469,2.07678 8,0.31863 7.07438,-3.12092 16.6907,-4.21525 30.89584,-3.51594 7.24574,0.3567 19.09251,0.59183 26.32617,0.5225 14.12088,-0.13534 18.80612,1.02141 21.87324,5.40033 1.13874,1.62579 1.7197,1.81533 2.66539,0.86964 0.6651,-0.6651 2.03749,-1.20927 3.04976,-1.20927 1.01227,0 3.20819,-1.0125 4.87981,-2.25 2.67182,-1.97794 4.47013,-2.29011 14.87248,-2.58176 7.41716,-0.20795 12.60962,0.0838 13.91376,0.78174 1.58105,0.84615 4.05215,0.71401 10.29204,-0.55035 12.39037,-2.51061 33.61308,-1.5481 41.06237,1.8623 4.76128,2.17978 5.70994,2.31945 7.82843,1.15255 6.14425,-3.38436 16.78681,-4.71053 32.3293,-4.02857 8.29473,0.36394 16.93346,0.82608 19.19719,1.02696 4.36015,0.38693 8.84989,2.75255 9.76878,5.14712 0.92061,2.39908 8.54304,1.8566 11.38131,-0.80999 l 2.39486,-2.25 116.1696,-0.26488 c 81.52612,-0.18589 116.94982,0.0574 118.78592,0.81594 5.4588,2.2551 5.5163,3.83762 0.9669,26.61248 -6.1014,30.54384 -7.2398,34.59391 -10.1461,36.09607 -1.9349,1.00008 -33.9624,1.20613 -155.43712,1 -140.36525,-0.23817 -153.26658,-0.39689 -156.22791,-1.92194 -3.04418,-1.56771 -3.51434,-1.55348 -8.26073,0.25 -4.25652,1.61735 -7.69199,1.90992 -22.27211,1.89671 -18.84016,-0.0171 -27.37256,-1.35179 -31.11459,-4.86725 -3.11461,-2.92603 -11.07835,-3.00648 -12.61914,-0.12748 -2.25252,4.20886 -6.30286,5.18841 -20.00395,4.83783 -10.47582,-0.26806 -13.14837,-0.64502 -14.72857,-2.07748 -2.65766,-2.40917 -10.72777,-2.27692 -19.26335,0.31568 -6.1179,1.85826 -8.59369,2.01524 -24.65524,1.56338 -9.81994,-0.27626 -20.12364,-0.51012 -22.89712,-0.51969 -3.73435,-0.0129 -6.01608,-0.67796 -8.79441,-2.56338 -3.30474,-2.24266 -4.78238,-2.54599 -12.40259,-2.54599 -8.07553,0 -8.84157,0.18289 -11.51824,2.75 -2.79364,2.67929 -3.21206,2.75841 -16.27328,3.0769 -13.31573,0.32469 -13.42349,0.30931 -16.01911,-2.28631 -2.28127,-2.28127 -2.53003,-3.14845 -1.95839,-6.8269 0.36014,-2.31753 0.87726,-5.00119 1.14915,-5.96369 0.40991,-1.45114 -0.16896,-1.75 -3.38959,-1.75 h -3.88393 l -1.27824,6.43079 c -2.15024,10.81781 1.76691,10.03313 -51.44286,10.30488 -30.2458,0.15446 -46.74458,-0.11871 -47.88356,-0.79283 z m 54.08424,-12.69284 c 0.50428,-0.9625 1.23087,-3.2125 1.61464,-5 l 0.69777,-3.25 h -16.14684 c -14.90945,0 -16.10698,-0.13411 -15.62665,-1.75 0.90301,-3.03785 5.61458,-28.60657 5.61458,-30.46917 0,-1.50766 -0.91004,-1.78083 -5.93261,-1.78083 -4.79093,0 -6.02987,0.33677 -6.43797,1.75 -0.27794,0.9625 -2.12988,10.075 -4.1154,20.25 -1.98553,10.175 -3.84377,19.2875 -4.12942,20.25 -0.48359,1.62943 0.99859,1.75 21.51283,1.75 19.9671,0 22.11814,-0.16403 22.94907,-1.75 z m 30.96909,1.13688 c 2.90141,-0.58028 3.1553,-1.02213 4.74059,-8.25 l 1.675,-7.63688 14.30841,-12.5 c 7.86963,-6.875 14.34262,-12.8375 14.38441,-13.25 0.0418,-0.4125 -3.27584,-0.75 -7.37253,-0.75 h -7.44852 l -8.93205,8.5 c -4.91262,4.675 -9.12622,8.5 -9.36356,8.5 -0.23733,0 -2.87698,-3.825 -5.86589,-8.5 l -5.43437,-8.5 h -7.36053 c -8.56886,0 -8.51575,-0.3554 -1.44167,9.64702 2.66568,3.76914 6.33316,9.19781 8.14996,12.06371 3.25038,5.12732 3.28488,5.30342 2.15534,11 -0.63135,3.1841 -1.36214,6.54493 -1.62398,7.46851 -0.34816,1.22809 0.27484,1.79233 2.31887,2.10017 1.53721,0.23151 3.07618,0.48835 3.41993,0.57076 0.34375,0.0824 2.00452,-0.12607 3.69059,-0.46329 z m 47.17257,-5.13688 c 0.62147,-3.1625 1.31425,-6.3125 1.53951,-7 0.29627,-0.90424 3.66843,-1.2566 12.19095,-1.27386 14.70861,-0.0298 18.70602,-0.93411 22.96793,-5.19602 4.09257,-4.09257 6.49314,-13.89557 4.48308,-18.30716 -2.12638,-4.6669 -6.19683,-5.47296 -27.63751,-5.47296 -10.74267,0 -19.53212,0.30756 -19.53212,0.68346 0,1.11116 -7.04803,38.65665 -7.61514,40.56654 -0.4574,1.54041 0.25843,1.75 5.97685,1.75 h 6.49649 z m 3.01184,-17.70078 c 0,-0.24793 0.48729,-2.72293 1.08286,-5.5 l 1.08287,-5.04922 h 10.71713 c 7.00222,0 11.1331,0.41596 11.91714,1.2 1.82118,1.82118 1.43745,5.56255 -0.8,7.8 -1.75758,1.75758 -3.33333,2 -13,2 -6.05,0 -11,-0.20285 -11,-0.45078 z m 83.43547,20.92872 c 5.2622,-2.64475 7.47732,-5.94594 8.22482,-12.25746 0.51033,-4.30895 0.28461,-5.62388 -1.25799,-7.32844 -3.33386,-3.68387 -5.66734,-4.26553 -19.39145,-4.83365 -11.38925,-0.47146 -13.53753,-0.81192 -13.79995,-2.18701 -0.17094,-0.89574 0.41882,-2.35824 1.31058,-3.25 1.36649,-1.3665 4.26248,-1.62138 18.42214,-1.62138 h 16.80076 l 0.66098,-4.1335 c 0.36353,-2.27343 0.41304,-4.38143 0.11001,-4.68446 -1.18848,-1.18848 -36.02218,-0.59481 -39.73264,0.67716 -5.4334,1.8626 -8.50208,6.04637 -9.33715,12.73008 -0.64726,5.18046 -0.50103,5.80982 1.9101,8.22094 2.4927,2.49271 3.25747,2.64147 16.87767,3.28296 7.84666,0.36956 14.37915,0.72478 14.51665,0.78938 0.1375,0.0646 0.25,1.15244 0.25,2.41744 0,4.3651 -1.39483,4.7 -19.575,4.7 h -17.175 l -0.625,3.125 c -0.34375,1.71875 -0.625,3.71909 -0.625,4.44521 0,1.72547 5.72474,2.20943 24,2.0289 12.26579,-0.12116 15.10639,-0.448 18.43547,-2.12117 z m 44.28416,1.73433 c 0.6708,-0.43602 1.92443,-4.14329 2.78586,-8.23838 0.86143,-4.09509 1.8876,-7.71981 2.28037,-8.05493 1.13019,-0.96428 25.55255,-23.0209 27.17843,-24.5457 1.24991,-1.17221 0.33464,-1.37326 -6.25164,-1.37326 h -7.71593 l -9.34535,8.44044 -9.34534,8.44044 -5.90302,-8.42877 -5.90301,-8.42877 -7.80845,-0.0117 -7.80844,-0.0117 4.37331,5.75 c 2.40532,3.1625 6.73399,9.19578 9.61926,13.4073 l 5.24595,7.6573 -1.1127,6.3427 c -0.61198,3.48848 -1.30725,7.0177 -1.54505,7.8427 -0.33916,1.17664 0.69599,1.55444 4.80188,1.75251 2.87883,0.13889 5.78307,-0.10423 6.45387,-0.54024 z m 78.28037,-2.222 c 5.69751,-3.15296 7.61501,-6.99666 10.31181,-20.67042 2.32289,-11.77787 1.95503,-13.57092 -3.63595,-17.72269 -2.58591,-1.92025 -4.1465,-2.09716 -18.5,-2.09716 -12.57749,0 -16.57831,0.34834 -20.24168,1.76237 -9.21787,3.55802 -13.32474,11.11353 -14.47524,26.63045 -0.47726,6.43694 -0.28084,7.96024 1.2768,9.90223 3.42947,4.27569 8.37797,5.24598 25.26426,4.95374 14.37732,-0.24883 15.82594,-0.44863 20,-2.75852 z M 726.0835,671.1658 c -1.86648,-2.06244 -1.6663,-5.09402 0.96935,-14.68003 1.81244,-6.59195 3.70086,-7.42035 16.91543,-7.42035 13.47099,0 13.80891,0.2896 11.91654,10.21241 -0.76439,4.00818 -1.39033,7.64554 -1.39098,8.08304 -6.5e-4,0.4375 -1.10573,1.9 -2.45573,3.25 -2.30554,2.30555 -3.11562,2.45455 -13.34501,2.45455 -9.42865,0 -11.12122,-0.25498 -12.6096,-1.89962 z m 85.52267,10.89013 c 8.45083,-1.58379 12.26119,-5.36236 13.57564,-13.46242 1.55048,-9.55445 -2.08545,-11.75077 -20.6784,-12.49103 -11.94519,-0.47559 -13.52855,-0.74287 -13.83258,-2.3351 -0.80459,-4.21376 1.15537,-4.70196 18.87689,-4.70196 18.39318,0 16.87061,0.51072 18.34698,-6.15411 l 0.58793,-2.65411 -10.70988,-0.72999 c -14.90078,-1.01564 -27.12071,-0.0939 -32.04231,2.4169 -7.24738,3.69734 -9.91374,15.25757 -4.65842,20.197 2.39968,2.25543 3.56649,2.46765 16.75,3.04654 7.79385,0.34223 14.28314,0.67973 14.42064,0.75 0.1375,0.0703 0.25,1.16277 0.25,2.42777 0,4.38052 -1.36595,4.7 -20.09496,4.7 h -17.69497 l -0.38114,3.99669 c -0.37105,3.89079 -0.28773,4.01219 3.14496,4.58189 1.93936,0.32186 3.97611,0.73783 4.52611,0.92437 2.35163,0.79757 24.68563,0.4111 29.61351,-0.51244 z m 128.20991,0.35534 c 11.2736,-0.54067 13.7158,-0.93097 14.0788,-2.25 0.2415,-0.87772 0.7301,-2.60835 1.0858,-3.84585 l 0.6468,-2.25 h -16.0674 c -17.4954,0 -17.025,0.1752 -15.4371,-5.75 0.5899,-2.20139 0.9144,-2.25 15.0177,-2.25 10.6597,0 14.5151,-0.32562 14.7998,-1.25 0.2118,-0.6875 0.6563,-2.4875 0.9877,-4 l 0.6026,-2.75 h -14.5191 c -13.646,0 -14.519,-0.11534 -14.519,-1.91821 0,-5.02697 0.1832,-5.08179 16.982,-5.08179 h 15.768 l 0.625,-3.125 c 1.2471,-6.23544 2.5508,-5.875 -21.25,-5.875 h -21.875 l -0.6578,3.25 c -0.6569,3.24553 -5.0726,27.4087 -6.11,33.43418 -0.5144,2.98799 -0.3459,3.20919 2.7348,3.58997 5.8285,0.7204 13.1751,0.73984 27.1064,0.0717 z m 71.06362,-0.40974 c 0.2343,-0.23986 0.7287,-2.47086 1.0988,-4.95777 l 0.6728,-4.52165 -10.3293,0.759 c -12.68712,0.93226 -22.54092,0.1221 -23.69972,-1.94853 -1.5889,-2.83931 2.3951,-17.58216 5.2701,-19.50185 0.6052,-0.40408 8.1612,-0.74158 16.79132,-0.75 8.63,-0.008 15.9017,-0.35624 16.1592,-0.77293 0.2575,-0.41668 0.7842,-2.44168 1.1703,-4.5 l 0.7021,-3.74238 -18.86132,0.022 c -26.3075,0.0306 -29.0545,1.47845 -32.9653,17.37449 -2.6565,10.79751 -2.4596,15.99151 0.727,19.17979 1.4427,1.44344 4.1427,3.01107 6,3.48362 3.3122,0.8427 36.42762,0.73272 37.26402,-0.12375 z m 61.0101,-0.68611 c 0.7942,-2.61357 4.5265,-19.71139 6.1452,-28.15236 0.7808,-4.0713 1.6835,-8.2338 2.0061,-9.25 0.5289,-1.66641 -0.046,-1.84764 -5.8592,-1.84764 h -6.4456 l -1.3929,7.25 -1.3929,7.25 -13.3599,0.27994 -13.3599,0.27993 0.6704,-3.27993 c 0.3686,-1.80397 0.9421,-5.21682 1.2743,-7.58412 l 0.604,-4.30418 -5.8339,0.30418 c -6.9076,0.36016 -6.0458,-1.57733 -10.3165,23.19379 l -2.8638,16.61039 h 5.8252 5.8252 l 0.998,-3.75 c 0.5489,-2.0625 1.2988,-5.6625 1.6664,-8 l 0.6683,-4.25 h 12.8722 c 14.6667,0 13.7243,-0.79829 11.4684,9.71467 -0.7334,3.41806 -1.0926,6.45556 -0.7982,6.75 0.2944,0.29443 2.905,0.53533 5.8013,0.53533 4.1459,0 5.379,-0.37221 5.7978,-1.75 z m -188.49252,-3 c 0.53994,-2.0625 1.99997,-9.0375 3.24451,-15.5 l 2.2628,-11.75 h 9.29399 c 7.2192,0 9.2941,-0.30696 9.2941,-1.375 0,-0.75625 0.2812,-2.78125 0.625,-4.5 l 0.625,-3.125 h -24.01661 -24.01659 l -0.6559,2.75 c -0.36074,1.5125 -0.88985,3.5375 -1.1758,4.5 -0.46847,1.57689 0.3837,1.75 8.61488,1.75 8.23035,0 9.08352,0.17327 8.61706,1.75 -0.28475,0.9625 -1.44934,6.925 -2.58799,13.25 -1.13864,6.325 -2.29457,12.5125 -2.56872,13.75 -0.47366,2.13808 -0.20098,2.25 5.48205,2.25 h 5.98051 z m -536.40462,-6.95227 c -36.54596,-1.81412 -41.06718,-2.67332 -19,-3.61072 9.35,-0.39718 28.88102,-1.41073 43.40227,-2.25231 14.52124,-0.84159 26.77808,-1.15435 27.23742,-0.69501 0.45933,0.45933 -0.54195,2.50581 -2.22507,4.54773 l -3.06023,3.71258 -9.17719,-0.15619 c -5.04746,-0.0859 -21.7772,-0.78164 -37.1772,-1.54608 z m 766.68624,-0.78845 c -1.7537,-3.84893 -1.4589,-5.40272 1.1491,-6.0573 1.2844,-0.32237 13.0969,0.10601 26.25,0.95195 13.1531,0.84594 31.4592,1.84415 40.6802,2.21825 9.221,0.3741 16.5713,0.8743 16.3341,1.11156 -0.4287,0.42866 -37.8891,2.49489 -67.6634,3.73217 l -15.5638,0.64675 z M 346.49266,609.32151 c -30.07509,-0.26675 -31.36417,-0.49557 -33.65463,-5.97397 -1.78957,-4.28034 -2.01755,-266.71274 -0.2351,-270.6248 0.61065,-1.34022 2.20683,-2.9364 3.54705,-3.54705 1.72257,-0.78485 26.46551,-1.11027 84.41817,-1.11027 89.45466,0 100.66172,0.51854 122.42451,5.66442 24.90913,5.88985 41.18109,13.9949 56.65332,28.21898 3.65932,3.36413 6.88414,6.1166 7.16625,6.1166 0.28211,0 0.66312,-5.44074 0.84668,-12.09053 0.29899,-10.83144 0.55127,-12.26644 2.42254,-13.77975 1.28869,-1.04218 2.31268,-3.35847 2.6733,-6.04706 1.10625,-8.24769 -7.00574,-7.58348 92.52435,-7.5759 77.47093,0.006 90.48777,0.22306 102.71356,1.71357 16.54881,2.01755 31.39981,5.60836 40.17106,9.71292 3.48092,1.62892 6.32894,2.82945 6.32894,2.66785 0,-0.1616 -0.69745,-1.6919 -1.54989,-3.40065 -1.40182,-2.81002 -1.40008,-3.39651 0.0182,-6.13915 0.86244,-1.66778 2.57239,-3.24058 3.79989,-3.49511 1.22749,-0.25452 26.30681,-0.75305 55.73182,-1.10783 61.129,-0.73705 59.0005,-0.97739 65.752,7.42471 2.0614,2.56536 13.198,15.41888 24.748,28.56337 11.55,13.1445 24.32892,27.75884 28.39752,32.47632 4.0687,4.71748 7.7287,8.57724 8.1334,8.57724 0.4047,0 2.4759,-2.06137 4.6025,-4.58082 2.1266,-2.51945 11.7416,-13.54873 21.3666,-24.50952 9.625,-10.96079 22.1793,-25.42911 27.8984,-32.15183 7.4204,-8.72244 11.6446,-12.82636 14.7495,-14.32943 4.3197,-2.09113 4.7671,-2.10168 62.1016,-1.46303 31.7628,0.35381 58.7548,0.85036 59.9823,1.10344 2.9777,0.61394 5.5058,5.61648 4.6355,9.17256 -0.3713,1.51725 -5.2183,8.62518 -10.7712,15.7954 -5.5528,7.17023 -16.3961,21.2859 -24.0961,31.36815 -7.7,10.08225 -17.3908,22.6657 -21.5351,27.96322 -4.1443,5.29752 -14.0012,18.18186 -21.9042,28.63186 -7.903,10.45 -15.2658,19.99931 -16.3617,21.22068 -1.4076,1.56881 -1.6983,2.59623 -0.9902,3.5 1.5044,1.91994 24.3818,31.52624 28.8761,37.36931 2.1533,2.79949 11.3829,14.72449 20.5103,26.5 18.4459,23.79771 29.9599,38.86981 42.5045,55.63942 9.3582,12.50993 10.2568,15.50495 5.9458,19.81604 -2.7906,2.79055 6.3563,2.46754 -81.8679,2.89106 -42.4878,0.20396 -43.9564,0.14723 -48.2243,-1.86307 -3.5106,-1.6536 -7.6684,-6.02188 -20.5338,-21.57344 -13.3442,-16.13041 -25.7657,-30.80815 -44.7125,-52.83429 l -2.2931,-2.66571 -3.2069,3.6283 c -1.7639,1.99557 -10.1715,11.67057 -18.68362,21.5 -8.5122,9.82944 -20.6,23.7217 -26.8618,30.8717 -6.2618,7.15 -12.7999,14.63652 -14.5292,16.6367 -5.3786,6.22135 -5.075,6.19739 -68.03984,5.36892 -54.89134,-0.72224 -56.70676,-0.8076 -59.22022,-2.78469 -2.19231,-1.72447 -2.515,-2.62072 -2.08849,-5.80058 l 0.50445,-3.76098 -4.64415,1.44342 c -2.55429,0.79388 -8.24416,2.29601 -12.64416,3.33806 -27.5121,6.5157 -37.53338,7.05278 -131.66111,7.05619 l -81.6611,0.003 -2.5889,-3.07673 -2.58889,-3.07672 v -19.56109 -19.5611 l -8.25,7.89728 c -17.64521,16.89081 -33.62824,25.42318 -60.75,32.43074 -17.1651,4.43501 -25.32072,5.06042 -72,5.52129 -24.475,0.24165 -51.7,0.54893 -60.5,0.68284 -8.8,0.13392 -28.375,0.13373 -43.5,-4.2e-4 z m 744.80704,-11.4203 c -0.7904,-1.19032 -2.1851,-2.27401 -3.0995,-2.40821 -1.5265,-0.22404 -1.5211,-0.0497 0.065,2.13279 2.3036,3.16961 5.1261,3.42579 3.0344,0.27542 z m -8.3721,-10.90768 c -0.9597,-1.06046 -2.2022,-1.92811 -2.7611,-1.92811 -0.559,0 -1.9132,-0.7875 -3.0094,-1.75 -1.0963,-0.9625 -0.249,0.6114 1.8828,3.49754 3.1301,4.23771 4.0451,4.94553 4.7543,3.67811 0.5945,-1.06231 0.3145,-2.19247 -0.8666,-3.49754 z m -178.88492,2.12197 c 0.5999,-0.59989 2.6081,-0.57456 5.45,0.0687 6.1256,1.38665 12.2898,0.36959 19.8398,-3.27344 7.3576,-3.55024 11.3251,-8.75457 13.2578,-17.39111 l 1.1839,-5.29015 6.03,-1.06216 c 3.3165,-0.58419 7.6523,-2.1358 9.6353,-3.44803 4.594,-3.04023 17.5553,-17.12989 42.45742,-46.15392 10.8535,-12.65 22.0927,-25.7 24.976,-29 2.8832,-3.3 7.5477,-8.94772 10.3655,-12.55048 l 5.1233,-6.55048 -6.1845,-8.06058 c -3.4015,-4.43332 -11.6636,-14.5356 -18.3604,-22.44952 -6.6967,-7.91392 -18.35572,-21.81394 -25.90892,-30.88894 -7.5533,-9.075 -15.5919,-18.525 -17.8637,-21 -2.2718,-2.475 -6.6387,-7.875 -9.7042,-12 -3.0654,-4.125 -6.8103,-8.625 -8.3218,-10 -1.5116,-1.375 -4.5504,-5.13975 -6.753,-8.36611 -7.2712,-10.65079 -2.1229,-9.63386 -48.7725,-9.63386 -22.55002,0 -40.99593,0.3375 -40.99092,0.75 0.0106,0.87549 27.95413,37.82415 38.00302,50.25 3.7807,4.675 10.5596,13.225 15.0643,19 9.1807,11.76985 13.8701,17 15.2422,17 0.5094,0 0.3895,-0.64673 -0.2665,-1.43719 -0.7538,-0.90829 -1.0991,-4.31235 -0.9383,-9.25 0.1444,-4.43058 -0.2356,-8.71637 -0.8777,-9.90001 -0.6227,-1.14796 -5.2056,-6.98016 -10.1842,-12.96046 -5.2206,-6.27106 -9.0519,-11.78275 -9.0519,-13.02202 0,-1.18181 -1.7122,-4.1246 -3.805,-6.53953 -2.0927,-2.41493 -6.855,-8.32829 -10.583,-13.14079 l -6.77803,-8.75 30.33303,0.094 c 28.5924,0.0886 29.935,0.173 23.3966,1.47133 -8.8485,1.75704 -15.2014,5.6784 -18.9053,11.66943 -4.2117,6.81215 -4.565,12.39186 -1.2179,19.23302 2.5492,5.21039 9.8011,12.53225 12.4126,12.53225 1.3026,0 1.3387,2.98384 0.2481,20.5 l -0.7471,12 3.8517,5.24622 c 2.1185,2.88541 8.1157,10.43107 13.3273,16.76812 l 9.4755,11.52192 -7.6904,9.23187 c -4.2297,5.0775 -12.5477,13.95684 -18.4845,19.73184 -11.0065,10.70662 -13.8336,15.19787 -13.8336,21.9765 0,14.1203 16.5215,24.2116 32.1845,19.65824 6.4672,-1.88009 13.7284,-8.81089 15.7968,-15.0781 2.7693,-8.39117 -1.1866,-19.28952 -8.7322,-24.05664 -1.7411,-1.1 -3.0719,-2.3186 -2.9574,-2.708 0.1146,-0.38939 5.7208,-6.77383 12.4583,-14.18764 6.7375,-7.4138 12.25,-13.79559 12.25,-14.18176 0,-0.38616 -0.6163,-1.20172 -1.3695,-1.81236 -0.7532,-0.61063 -7.9532,-9.06931 -16,-18.79706 l -14.6305,-17.68682 V 413.8786 400.56542 l 4.318,-1.77536 c 2.375,-0.97644 6.0526,-3.55165 8.1726,-5.72269 l 3.8544,-3.94733 3.0738,4.91357 c 1.6905,2.70246 7.5737,10.36503 13.0737,17.02794 5.5,6.66291 12.7,15.38927 16,19.3919 3.3,4.00264 10.66182,12.84444 16.35962,19.64846 5.6977,6.80401 10.5753,12.93315 10.8389,13.62029 0.4268,1.11209 -6.482,9.99926 -18.1985,23.40966 -2.2,2.51807 -8.27502,9.68057 -13.50002,15.91666 -22.9146,27.34877 -37.4287,43.06764 -42,45.48621 -4.9188,2.60238 -7.431,2.24834 -10.7331,-1.51255 -4.8225,-5.49254 -11.4586,-8.34828 -20.4161,-8.78578 -6.6767,-0.3261 -8.433,-0.0219 -13.8133,2.39267 -7.5846,3.40376 -12.53534,8.90111 -14.68956,16.31137 -2.66527,9.16819 -0.58315,17.01819 6.46516,24.37498 l 3.5928,3.75 H 875.3431 c -22.21118,0 -23.64985,0.11258 -25.34267,1.98312 -1.78473,1.97211 -1.64812,1.98471 24.59502,2.26734 14.51434,0.15632 26.86223,0.38891 27.43973,0.51688 0.5775,0.12796 1.4775,-0.1948 2,-0.71726 z m 7.9291,-11.01887 c -4.7317,-1.07277 -8.0412,-3.73367 -9.9736,-8.01891 -4.1745,-9.25751 2.8906,-20.0123 13.1466,-20.0123 7.5816,0 15.3524,7.66552 15.3441,15.13615 -0.01,8.54746 -9.2648,14.99275 -18.5171,12.89506 z m 9.1072,-4.67971 c 2.9998,-1.96554 5.4137,-6.30187 5.4137,-9.72511 0,-3.37025 -4.3198,-8.24681 -8.5387,-9.63915 -4.7726,-1.57511 -10.2649,1.08807 -12.7569,6.18578 -1.6319,3.33826 -1.6602,3.99704 -0.3102,7.22811 2.7061,6.47663 10.8317,9.46265 16.1921,5.95037 z m 15.9137,-48.87232 c -7.6172,-4.00965 -8.6509,-10.56363 -2.6177,-16.59683 3.242,-3.24194 4.5559,-3.88235 7.9652,-3.88235 4.9024,0 10.6476,4.42462 11.6456,8.96892 1.7843,8.12367 -9.2405,15.59124 -16.9931,11.51026 z m 9.0279,-2.67387 c 3.1363,-1.42898 5.7099,-5.96693 4.816,-8.49196 -2.0575,-5.81191 -8.3856,-8.07373 -13.1845,-4.71244 -4.9754,3.4849 -4.5805,10.01074 0.7823,12.92758 3.1906,1.73538 4.2965,1.77573 7.5862,0.27682 z m -11.1076,-134.69078 c -3.6515,-2.22667 -5.9051,-7.04705 -4.9932,-10.68035 0.7829,-3.1193 5.0131,-7.25558 8.2515,-8.06837 6.3133,-1.58453 13.4966,2.60268 14.8227,8.64022 1.878,8.55055 -9.8675,15.11709 -18.081,10.1085 z m 12.5029,-3.70342 c 3.3456,-2.8151 3.6571,-4.04333 1.9665,-7.75379 -2.3008,-5.04973 -9.6079,-6.14345 -13.4375,-2.0113 -7.1826,7.75014 3.2804,16.65707 11.471,9.76509 z m 242.18672,203.83889 c -1.7449,-3.17929 -19.2352,-24.65219 -24.436,-30 -2.8081,-2.8875 -5.6108,-5.25 -6.2284,-5.25 -0.6175,0 -5.8079,-5.58069 -11.5341,-12.40153 l -10.4114,-12.40152 -9,-0.3749 -9,-0.37489 -11.9084,11.68994 -11.9084,11.68994 6.6069,7.92133 c 5.7397,6.88156 12.8697,14.1669 8.9928,9.18877 -1.074,-1.37901 -0.7211,-1.49331 3,-0.97167 4.252,0.59608 14.1031,-0.45939 16.1251,-1.72769 0.6006,-0.37671 1.542,-0.71802 2.092,-0.75848 1.0125,-0.0745 8.6674,-1.18569 13.7997,-2.00322 2.0264,-0.32278 2.6004,-0.10484 2.0781,0.78898 -0.8006,1.37017 0.954,0.0414 7.561,-5.72622 l 4.4389,-3.87485 1.7218,3.91801 c 0.947,2.1549 5.9972,9.08792 11.2226,15.4067 5.2255,6.31879 9.3416,11.74647 9.1469,12.06152 -0.1948,0.31505 -14.9404,0.68758 -32.7681,0.82783 l -32.414,0.25502 -3.2257,-3.22575 c -1.7742,-1.77417 -7.7974,-8.66661 -13.3848,-15.31654 -5.5875,-6.64993 -13.988,-16.40278 -18.6677,-21.673 -4.6798,-5.27021 -17.4785,-20.00771 -28.4417,-32.75 -10.9631,-12.74228 -20.1881,-23.14089 -20.5,-23.10803 -0.3118,0.0329 -2.4442,2.62036 -4.7384,5.75 -4.0455,5.51838 -4.1177,5.75066 -2.3893,7.69025 8.2658,9.2759 67.0092,79.07896 70.0598,83.25 l 2.377,3.25 h 46.3471 c 43.8394,0 46.2952,-0.0947 45.3867,-1.75 z m -684.54667,-3.98565 c 22.46349,-4.55503 32.80076,-8.46862 47.29101,-17.90392 23.4657,-15.27964 38.2589,-40.1003 44.31907,-74.36043 2.03999,-11.53277 1.76338,-52.29373 -0.42235,-62.23525 -6.95136,-31.61745 -26.76818,-57.26911 -55.251,-71.51903 -7.8151,-3.90989 -25.63883,-9.62751 -37,-11.86912 -8.08328,-1.59487 -17.42871,-1.81125 -91.75,-2.12431 l -82.75,-0.34857 V 464.57502 586.1809 l 82.75,-0.40528 c 78.44143,-0.38417 83.27397,-0.51152 92.81327,-2.44585 z m -168.82931,-2.86372 c -0.40368,-0.40368 -0.67361,-17.42146 -0.59985,-37.8173 0.15519,-42.91053 1.36213,-104.8174 1.75628,-90.08333 0.14713,5.5 0.52445,9.325 0.8385,8.5 0.80703,-2.12006 2.357,-2.96702 5.46209,-2.98469 1.48004,-0.008 2.93837,-0.41559 3.24073,-0.90482 0.78874,-1.27621 7.37239,-1.87776 11.76331,-1.07483 2.06302,0.37725 3.54316,0.34972 3.2892,-0.0612 -0.88084,-1.42523 4.069,-1.91398 16.2113,-1.60071 l 12.2047,0.31488 0.37518,-4.09432 c 0.20635,-2.25188 0.4538,17.16818 0.54989,43.15568 l 0.17471,47.25001 38.25,-0.0157 c 42.24564,-0.0173 48.28371,-0.65839 64.12093,-6.808 14.07247,-5.46436 27.71793,-17.49248 33.66672,-29.67633 3.62027,-7.41477 7.6104,-22.37267 8.803,-33 0.54844,-4.88717 0.94881,-6.44359 1.02897,-4 l 0.13122,4 14.24958,-0.16364 c 12.37454,-0.14211 26.70431,-1.32678 33.24958,-2.74881 1.1,-0.23899 2.30536,-0.46896 2.67857,-0.51104 0.37322,-0.0421 1.38572,-0.78365 2.25,-1.64794 1.42857,-1.42857 1.58444,-1.31493 1.71456,1.25 0.37274,7.34721 -0.49461,17.75932 -2.27593,27.32143 -9.20981,49.43844 -38.06381,75.58581 -92.33513,83.67373 -9.24968,1.37846 -23.07118,1.71007 -85.54811,2.05247 -40.98382,0.22462 -74.84632,0.0781 -75.25,-0.32557 z m 61.7141,-45.2859 c -0.69233,-0.69233 -0.52479,-93.73835 0.21596,-119.93578 l 0.65941,-23.32105 39.08829,0.38172 c 36.59757,0.3574 39.59804,0.52268 47.08828,2.59394 12.84499,3.55199 19.53768,7.19867 27.20247,14.82195 11.89203,11.82761 16.1,23.31641 17.00513,46.42813 1.1461,29.26496 -4.66359,48.28462 -18.66891,61.11795 -11.19892,10.26178 -26.77842,16.33964 -44.53869,17.37541 -11.03254,0.64341 -67.50006,1.0896 -68.05194,0.53773 z m -61.30615,-173.86473 -0.14191,-12.25 h 67.66667 c 37.21666,0 67.41668,0.24998 67.11115,0.55551 -0.30553,0.30554 -8.41804,0.54118 -18.02779,0.52365 -15.57913,-0.0284 -17.92973,0.18916 -21.69431,2.00801 -2.32212,1.12193 -6.32212,2.2662 -8.88888,2.54282 -2.56676,0.27662 -5.34184,0.75754 -6.16684,1.06871 -0.825,0.31117 -2.4,0.69524 -3.5,0.85349 -1.1,0.15825 -3.35,0.55353 -5,0.87839 -1.65,0.32487 -5.475,0.81076 -8.5,1.07976 -3.025,0.269 -7.975,0.71232 -11,0.98514 -3.025,0.27282 -7.75,0.95969 -10.5,1.52638 -2.75,0.56669 -7.1375,1.30085 -9.75,1.63147 -2.6125,0.33062 -4.75,0.93815 -4.75,1.35007 0,0.83186 -7.82167,1.76492 -18.5,2.20688 l -7,0.28972 -0.60809,3.5 c -0.33446,1.925 -0.67196,-2.0125 -0.75,-8.75 z m 148.67059,-10.93311 c 0.72187,-0.28887 1.58438,-0.25335 1.91667,0.0789 0.33229,0.33229 -0.25834,0.56864 -1.3125,0.52522 -1.16495,-0.048 -1.4019,-0.28494 -0.60417,-0.60416 z m 284.2974,234.16311 c 20.78884,-2.0532 32.65651,-4.14147 43.3901,-7.63508 18.9357,-6.16325 34.01148,-17.93891 40.83813,-31.89855 5.58106,-11.41258 6.95808,-18.30125 6.48698,-32.45181 -0.38126,-11.45215 -0.59158,-12.47039 -4.10335,-19.86518 -4.309,-9.07353 -13.01642,-18.43348 -21.72176,-23.3496 -6.24557,-3.52702 -23.28345,-9.65629 -29.95794,-10.77719 l -4.45794,-0.74865 8.42347,-2.43186 c 26.71806,-7.71354 41.16575,-25.90121 41.16575,-51.82208 0,-30.36736 -18.26861,-48.99975 -56.17334,-57.29192 -11.36632,-2.48653 -12.1335,-2.51984 -66,-2.86537 -29.975,-0.19227 -67.88779,-0.46054 -84.25065,-0.59615 l -29.75066,-0.24656 6.6e-4,121.75 6.5e-4,121.75 h 70.3599 c 55.53678,0 73.60222,-0.32023 85.75,-1.52 z m -149.3599,-4.04359 c -0.91404,-0.9381 -0.74853,-98.63542 0.20488,-120.93641 0.37622,-8.8 0.76527,-14.59475 0.86457,-12.87723 0.16976,2.93612 0.46447,3.16022 4.93055,3.74924 5.74527,0.75774 14.82879,2.2265 18.25,2.95092 1.375,0.29116 21.625,0.81119 45,1.15564 23.375,0.34446 54.2,0.99379 68.5,1.44298 14.3,0.44918 26.675,0.60814 27.5,0.35324 1.3066,-0.4037 1.31097,-0.32976 0.0339,0.57346 -1.84368,1.30395 0.9852,2.4722 12.78566,5.28013 20.68686,4.92246 33.41961,10.58172 42.51929,18.89831 13.6472,12.47277 17.90024,34.11719 10.71879,54.5497 -2.80797,7.98917 -6.17501,13.31483 -12.3332,19.50749 -12.52622,12.59631 -31.66779,19.63699 -63.98804,23.53618 -10.50571,1.26743 -27.78057,1.6989 -83.73638,2.09147 -38.775,0.27204 -70.8375,0.14823 -71.25,-0.27512 z m 149.25,-40.31069 c 18.30004,-5.49573 26.39479,-15.17981 26.43538,-31.62572 0.0173,-6.99939 -0.34906,-8.67093 -2.92891,-13.36422 -5.16152,-9.38987 -14.58633,-15.28658 -27.39445,-17.13958 -3.63661,-0.52612 -25.62452,-0.9655 -48.86202,-0.97639 l -42.25,-0.0198 v 33.06598 33.06597 l 43.75,-0.37694 c 41.91469,-0.36113 44.06463,-0.47143 51.25,-2.62929 z m -88.76596,-29.79659 0.26596,-27.82913 37.5,-0.27589 c 39.63821,-0.29162 47.77353,0.37364 57.5,4.70201 8.57883,3.81767 13.44199,11.64682 13.47804,21.69815 0.0424,11.8276 -4.5026,19.0955 -14.84096,23.7321 -8.78207,3.93863 -16.46572,4.64981 -56.67859,5.24603 l -37.49041,0.55586 z m 0.76596,-97.29837 v -26.15403 l 40.25,0.35528 c 36.06521,0.31834 40.76985,0.5467 45.25,2.19647 11.48145,4.22793 15.50561,10.01642 15.49023,22.28168 -0.0183,14.60222 -5.19993,21.04779 -20.00376,24.8833 -5.32297,1.37912 -13.16813,1.76225 -43.73647,2.13595 l -37.25,0.45538 z m -60.86382,-54.28076 -0.13618,-9.75 70.75,0.23204 c 38.9125,0.12762 59.275,0.36413 45.25,0.52558 -16.75754,0.1929 -24.98574,0.62236 -24,1.25265 1.13558,0.72609 0.72476,0.96282 -1.69098,0.97442 -1.75504,0.008 -3.4691,-0.43469 -3.80902,-0.98469 -0.33992,-0.55 -2.41803,-1 -4.61803,-1 -2.41203,0 -3.75465,0.39699 -3.38197,1 0.33992,0.55 -0.19602,1.0287 -1.19098,1.06377 -0.99496,0.0351 -4.50902,0.23388 -7.80902,0.4418 -26.87843,1.69347 -32.1657,2.16979 -33.54458,3.02198 -0.42192,0.26076 -3.172,0.72697 -6.11128,1.03601 -2.93927,0.30904 -6.69414,0.97658 -8.34414,1.48342 -1.65,0.50685 -6.91033,2.08512 -11.68962,3.50728 -7.08078,2.107 -8.76816,2.98936 -9.11382,4.76574 -0.23331,1.199 -0.48548,-2.2075 -0.56038,-7.57 z m 524.99146,205.5 c 1.2438,-1.58606 1.2085,-1.62143 -0.3776,-0.37756 -0.9625,0.75485 -1.75,1.54235 -1.75,1.75 0,0.82304 0.8212,0.29331 2.1276,-1.37244 z m -35.3012,-38.53672 3.3264,-3.4661 -16.2333,-19.37359 c -8.9282,-10.65548 -19.4251,-23.28581 -23.3263,-28.06741 l -7.0932,-8.69382 -7.6762,-0.0562 -7.6763,-0.0562 -7.4277,8.8038 -7.4278,8.8038 5.104,5.94601 c 2.8072,3.2703 12.754,14.67275 22.104,25.33878 9.35,10.66602 18.9797,21.79095 21.3994,24.72205 l 4.3993,5.32927 8.6007,-7.88216 c 4.7303,-4.33519 10.0975,-9.44191 11.927,-11.34827 z m 25.0274,-8.96328 c -1.8228,-2.3375 -11.2284,-14.15 -20.9013,-26.25 -9.673,-12.1 -18.3972,-23.23914 -19.3872,-24.75364 l -1.8001,-2.75364 4.0559,-5.24636 c 2.2308,-2.8855 10.8726,-13.79636 19.204,-24.24636 17.3584,-21.7725 38.1746,-48.44118 56.98,-73 l 13.0174,-17 -3.7613,-0.69237 c -2.0686,-0.3808 -22.0732,-0.7183 -44.4545,-0.75 -40.0933,-0.0568 -40.7147,-0.027 -42.1479,2.01909 -1.4595,2.08375 -13.082,15.52932 -39.1588,45.30101 -20.1911,23.05207 -29.3499,33.676 -32.2045,37.35629 l -2.5085,3.23402 4.2338,5.05686 c 2.3287,2.78128 4.6246,4.92597 5.1021,4.76598 0.4776,-0.15998 9.0828,-9.56576 19.1227,-20.90173 10.0399,-11.33597 22.9794,-25.94526 28.7544,-32.46509 5.775,-6.51983 13.4267,-15.01995 17.0038,-18.88915 3.5771,-3.8692 7.8062,-8.60991 9.398,-10.53491 l 2.8941,-3.5 h 25.349 c 13.9419,0 25.3504,0.22997 25.352,0.51104 0.012,1.99107 -43.1219,56.87821 -72.2908,91.98896 -7.0823,8.525 -13.1165,16.07535 -13.4094,16.77855 -0.2929,0.7032 3.2092,5.8782 7.7824,11.5 16.9304,20.81217 32.3518,39.3286 35.7888,42.97145 l 3.538,3.75 h 8.8811 8.8811 z M 993.49268,489.24327 c 14.77032,-15.84151 21.83282,-24.6205 21.01312,-26.1202 -0.4682,-0.85671 -10.2253,-12.75987 -21.68222,-26.45146 -11.457,-13.6916 -23.1841,-27.8666 -26.0601,-31.5 -2.8761,-3.63341 -5.5865,-6.60619 -6.0232,-6.60619 -0.4367,0 -2.2082,1.125 -3.9367,2.5 -3.1232,2.48452 -3.1447,2.56565 -3.4606,13.09911 -0.3731,12.44145 -2.1593,9.2391 18.672,33.47734 7.527,8.75795 13.903,16.46318 14.169,17.12273 0.266,0.65955 -4.8374,7.09358 -11.3409,14.29785 -6.5034,7.20427 -12.1889,13.74986 -12.6343,14.54577 -0.6951,1.24209 1.1448,1.37728 12.987,0.95426 l 13.7969,-0.49285 z m 70.09572,-29.89346 c 1.5974,-0.94358 2.9043,-2.05446 2.9043,-2.46861 0,-0.41416 0.6251,-0.51313 1.3891,-0.21995 1.7083,0.65551 19.8498,-20.2598 41.3368,-47.65701 l 5.1458,-6.56119 -9.9226,-11.93881 c -5.4574,-6.56635 -10.159,-11.83116 -10.4479,-11.69957 -0.289,0.13158 -8.9575,9.77125 -19.2633,21.42148 -10.3059,11.65024 -23.3452,26.31884 -28.9764,32.5969 l -10.2384,11.41466 5.6916,6.44287 c 3.5276,3.99314 6.2271,6.23741 7.0998,5.90251 0.9722,-0.37304 1.2179,-0.0444 0.7936,1.06123 -0.338,0.88087 -0.3616,2.01098 -0.052,2.51134 0.9943,1.60892 11.4313,1.03047 14.5399,-0.80585 z m -14.0957,-0.16155 c 0,-0.48244 2.1375,-0.67019 4.75,-0.41722 7.0854,0.68608 7.4481,1.1269 1,1.21543 -3.1625,0.0434 -5.75,-0.31577 -5.75,-0.79821 z m 80.5917,-75.18688 c 5.9996,-7.18522 10.9083,-13.43158 10.9083,-13.88081 0,-0.44922 -2.7747,-3.7954 -6.1661,-7.43596 l -6.1661,-6.61919 h -6.9388 -6.9389 l -4.9316,5.25 c -6.4216,6.83629 -10.6338,12.45286 -10.2026,13.60439 0.6547,1.74848 17.8805,22.14561 18.7024,22.14561 0.4538,0 5.7338,-5.87882 11.7334,-13.06404 z"
       id="path1" />
  </g>
</svg>
